# xmcd
#
# Track frame offsets:
#	150
#	13790
#	26069
#	41034
#	54899
#	68807
#	80286
#	92991
#	106219
#	121156
#	133257
#	145421
#	155664
#	168125
#	178000
#	188679
#	200077
#	211694
#	222110
#
# Disc length: 3084
#
# Revision: 2
# Processed by: cddbd v1.5.1PL0 Copyright (c) Steve Scherf et al.
# Submitted via: CDex 1.51
# Normalized: r1:TDELIM( - )
#
DISCID=0b0c0a13
DTITLE=Various Country - Dolly Parton and Country Ladies 2
DYEAR=2003
DGENRE=Country
TTITLE0=Patsy Cline - Stop look and listen
TTITLE1=Patsy Cline - The Heart you may break may be your own
TTITLE2=Patsy Cline - Cry not for me
TTITLE3=Patsy Cline - Three Cigarettes in an Ashtray
TTITLE4=Patsy Cline - Try again
TTITLE5=Lacy J. Dalton - 16th Avenue
TTITLE6=Lacy J. Dalton - Dream Baby
TTITLE7=Lacy J. Dalton - Everybody makes mistakes
TTITLE8=Lacy J. Dalton - Tennessee Waltz
TTITLE9=Lacy J. Dalton - Whisper
TTITLE10=Donna Fargo - The Happiest Girl in the whole USA
TTITLE11=Donna Fargo - Dont be angry
TTITLE12=Donna Fargo - Somebody special
TTITLE13=Donna Fargo - That was Yesterday
TTITLE14=Dolly Parton - Makin Believe
TTITLE15=Dolly Parton - Letter to Heaven
TTITLE16=Dolly Parton - Release Me
TTITLE17=Dolly Parton - Two little Orphans
TTITLE18=Dolly Parton - Girl left alone
EXTD=YEAR: 2003
EXTT0=
EXTT1=
EXTT2=
EXTT3=
EXTT4=
EXTT5=
EXTT6=
EXTT7=
EXTT8=
EXTT9=
EXTT10=
EXTT11=
EXTT12=
EXTT13=
EXTT14=
EXTT15=
EXTT16=
EXTT17=
EXTT18=
PLAYORDER=
